#!OML:ASF F:\VICON\USERDATA\INSTALL\rory3\rory3.ASF
:FULLY-SPECIFIED
:DEGREES
347
root 0.922954 17.245 5.57742 2.58637 -3.38834 0.842784
lowerback 13.1458 0.725994 -0.658902
upperback -0.223978 1.0233 2.06708
thorax -7.68143 0.565843 2.37113
lowerneck -17.4284 -5.0949 -9.7889
upperneck 22.0738 -6.39951 8.02478
head 10.5479 -2.83715 3.58531
rclavicle 9.0447e-015 2.22639e-014
rhumerus -32.4204 -5.46298 -79.0627
rradius 55.8931
rwrist -8.47153
rhand -20.6087 11.7567
rfingers 7.12502
rthumb 5.7521 -18.1452
lclavicle 9.0447e-015 2.22639e-014
lhumerus -38.2475 9.91718 83.6184
lradius 43.032
lwrist -3.90567
lhand -23.0089 20.4307
lfingers 7.12502
lthumb 3.43448 50.3828
rfemur -21.3982 -2.37843 20.0326
rtibia 40.4166
rfoot -14.1303 -4.29269
rtoes 5.07165
lfemur -20.4856 0.359034 -21.1735
ltibia 38.7505
lfoot -14.2493 5.77538
ltoes 0.1552
348
root 0.914137 17.3139 5.63561 2.77098 -3.61671 0.764126
lowerback 12.7039 0.644763 -0.68056
upperback -0.377619 0.904406 1.95639
thorax -7.58842 0.507244 2.29017
lowerneck -17.725 -5.07344 -9.52357
upperneck 22.3202 -6.43131 8.00504
head 10.687 -2.82511 3.52955
rclavicle -5.1684e-015 -3.18055e-015
rhumerus -32.4477 -5.24844 -79.2648
rradius 55.8844
rwrist -8.08122
rhand -20.5321 10.9933
rfingers 7.12502
rthumb 5.82613 -18.9066
lclavicle -5.1684e-015 -3.18055e-015
lhumerus -38.5609 9.44323 83.0244
lradius 42.9015
lwrist -3.31361
lhand -22.9599 21.0471
lfingers 7.12502
lthumb 3.48187 50.9984
rfemur -20.4616 -1.97362 20.1094
rtibia 38.8045
rfoot -13.3495 -4.09005
rtoes 6.50533
lfemur -19.6973 0.0877277 -21.0706
ltibia 37.388
lfoot -13.5886 6.10019
ltoes 0.19754
349
root 0.905928 17.3788 5.69485 2.9502 -3.80405 0.702457
lowerback 12.1801 0.553349 -0.749314
upperback -0.498297 0.769241 1.90453
thorax -7.41427 0.442857 2.3006
lowerneck -17.7699 -5.07829 -9.45783
upperneck 22.3283 -6.46636 8.04546
head 10.7012 -2.83031 3.52744
rclavicle -1.17283e-014 -1.11319e-014
rhumerus -32.4351 -4.98131 -79.3457
rradius 55.5923
rwrist -7.22436
rhand -19.642 12.0888
rfingers 7.12502
rthumb 6.68546 -17.7857
lclavicle -1.17283e-014 -1.11319e-014
lhumerus -38.9128 9.18626 82.4587
lradius 42.8351
lwrist -2.87843
lhand -22.9887 20.9937
lfingers 7.12502
lthumb 3.45401 50.9455
rfemur -19.5711 -1.60296 20.1475
rtibia 37.2556
rfoot -12.6417 -3.86526
rtoes 9.35897
lfemur -18.9087 -0.138557 -20.992
ltibia 36.0876
lfoot -13.1103 6.35551
ltoes 0.675757
350
root 0.896722 17.4403 5.74035 3.14558 -3.90059 0.685085
lowerback 11.6995 0.431129 -0.919229
upperback -0.578132 0.582747 1.90084
thorax -7.21972 0.357537 2.42692
lowerneck -17.5759 -5.06761 -9.49732
upperneck 21.9981 -6.45382 8.1102
head 10.546 -2.82577 3.55594
rclavicle 4.27387e-015 -1.74931e-014
rhumerus -32.3619 -4.54666 -79.3744
rradius 55.3679
rwrist -6.15775
rhand -18.9843 13.014
rfingers 7.12502
rthumb 7.32029 -16.8394
lclavicle 4.27387e-015 -1.74931e-014
lhumerus -39.2408 8.89281 81.9704
lradius 43.0599
lwrist -2.19474
lhand -22.3521 20.9548
lfingers 7.12502
lthumb 4.06875 50.8957
rfemur -18.8815 -1.26431 20.1623
rtibia 35.799
rfoot -12.2883 -4.05669
rtoes 10.2568
lfemur -18.2176 -0.347589 -20.9537
ltibia 34.831
lfoot -12.563 6.54372
ltoes 0.805484
351
root 0.885805 17.4905 5.77483 3.37479 -4.15137 0.708642
lowerback 11.3608 0.382981 -1.17632
upperback -0.658336 0.481026 1.85031
thorax -7.10967 0.316282 2.53658
lowerneck -17.5129 -5.04579 -9.36425
upperneck 21.6664 -6.439 8.08298
head 10.4061 -2.81313 3.5208
rclavicle 1.23246e-014 2.38542e-014
rhumerus -32.2129 -4.07608 -79.4714
rradius 55.2533
rwrist -5.11812
rhand -19.1893 12.7548
rfingers 7.12502
rthumb 7.12247 -17.1054
lclavicle 1.23246e-014 2.38542e-014
lhumerus -39.4663 8.34054 81.5014
lradius 43.4106
lwrist -1.24973
lhand -21.6762 21.9616
lfingers 7.12502
lthumb 4.72146 51.889
rfemur -18.37 -0.75149 20.1517
rtibia 34.4459
rfoot -12.1705 -4.32488
rtoes 9.29703
lfemur -17.6671 -0.450616 -20.9405
ltibia 33.6232
lfoot -11.9524 6.71312
ltoes 0.871003
352
root 0.875887 17.5298 5.81231 3.54129 -4.42054 0.760986
lowerback 11.1901 0.351404 -1.41659
upperback -0.803981 0.403037 1.77239
thorax -7.16516 0.287784 2.60403
lowerneck -17.6917 -5.06094 -9.2383
upperneck 21.6663 -6.46954 8.035
head 10.4367 -2.81832 3.47531
rclavicle -1.15295e-014 3.97569e-015
rhumerus -32.0038 -3.65725 -79.5577
rradius 54.8783
rwrist -4.12138
rhand -19.3885 12.3528
rfingers 7.12502
rthumb 6.93015 -17.5138
lclavicle -1.15295e-014 3.97569e-015
lhumerus -39.7058 8.02313 80.9285
lradius 43.4916
lwrist -0.71354
lhand -21.6203 21.3407
lfingers 7.12502
lthumb 4.77546 51.2669
rfemur -17.7735 -0.232159 20.0947
rtibia 33.1964
rfoot -12.0139 -4.42941
rtoes 9.03328
lfemur -17.0458 -0.43699 -20.9741
ltibia 32.4819
lfoot -11.4997 6.84085
ltoes 0.484797
353
root 0.86584 17.5761 5.85994 3.66136 -4.57345 0.73836
lowerback 10.9077 0.309562 -1.54633
upperback -0.887992 0.33033 1.73952
thorax -7.09056 0.256558 2.65446
lowerneck -18.0892 -5.16965 -9.17191
upperneck 21.8399 -6.59342 7.93415
head 10.5817 -2.87163 3.4061
rclavicle 5.1684e-015 -7.95139e-016
rhumerus -31.7908 -3.23955 -79.5362
rradius 54.4465
rwrist -3.19904
rhand -18.874 12.4554
rfingers 7.12502
rthumb 7.4268 -17.3943
lclavicle 5.1684e-015 -7.95139e-016
lhumerus -39.787 7.82546 80.3983
lradius 43.3489
lwrist -0.496256
lhand -22.0893 17.2869
lfingers 7.12502
lthumb 4.32253 47.2228
rfemur -17.071 0.105669 20.1254
rtibia 32.0269
rfoot -11.6576 -4.59257
rtoes 8.7687
lfemur -16.3947 -0.455662 -20.9327
ltibia 31.4444
lfoot -11.2604 6.90673
ltoes 0.448161
354
root 0.852457 17.6157 5.90288 3.80607 -4.7867 0.65972
lowerback 10.5421 0.309989 -1.66132
upperback -0.872654 0.317 1.70953
thorax -6.86591 0.250817 2.68822
lowerneck -18.3994 -5.23456 -9.14421
upperneck 21.8071 -6.68144 8.00061
head 10.6391 -2.8945 3.40742
rclavicle -1.39646e-014 -6.36111e-015
rhumerus -31.6589 -2.85464 -79.5445
rradius 54.249
rwrist -2.15164
rhand -18.3068 13.5058
rfingers 7.12502
rthumb 7.97425 -16.3238
lclavicle -1.39646e-014 -6.36111e-015
lhumerus -39.6585 7.44572 79.933
lradius 43.2758
lwrist -0.234945
lhand -20.6399 21.5953
lfingers 7.12502
lthumb 5.72207 51.4981
rfemur -16.5177 0.646763 20.2182
rtibia 30.938
rfoot -11.4607 -4.98295
rtoes 7.4281
lfemur -15.8361 -0.515239 -20.817
ltibia 30.4655
lfoot -11.0029 7.11419
ltoes 0.552097
